<svg width="15.000000" height="16.000000" viewBox="0 0 15 16" fill="none" xmlns="http://www.w3.org/2000/svg" xmlns:xlink="http://www.w3.org/1999/xlink">
	<desc>
			Created with Pixso.
	</desc>
	<defs/>
	<path id="Vector" d="M11.29 0.46C11.35 0.46 11.4 0.44 11.45 0.4C11.49 0.35 11.51 0.29 11.51 0.23C11.51 0.17 11.49 0.11 11.45 0.06C11.4 0.02 11.35 0 11.29 0L3.7 0C3.64 0 3.59 0.02 3.54 0.06C3.5 0.11 3.48 0.17 3.48 0.23C3.48 0.29 3.5 0.35 3.54 0.4C3.59 0.44 3.64 0.46 3.7 0.46L11.29 0.46Z" fill="#414042" fill-opacity="1.000000" fill-rule="nonzero"/>
	<path id="Vector" d="M11.29 0.93L2.81 0.93C1.35 0.93 0.66 1.48 0.35 1.94C-0.04 2.5 -0.11 3.25 0.14 4.05C0.54 5.29 1.86 6.78 2.67 7.45C2.72 7.48 2.78 7.5 2.84 7.49C2.9 7.49 2.95 7.45 2.99 7.4C3.02 7.36 3.04 7.29 3.03 7.23C3.02 7.17 2.99 7.11 2.95 7.07C2.2 6.47 0.93 5.04 0.57 3.9C0.36 3.25 0.41 2.65 0.71 2.21C1.07 1.68 1.8 1.4 2.81 1.4L3.48 1.4L3.48 5.85C3.48 9.01 6.46 10.82 7.06 11.16C7.05 11.19 7.05 11.22 7.05 11.25L7.05 12.42C7.05 12.48 7.07 12.54 7.11 12.58C7.16 12.63 7.21 12.65 7.27 12.65C7.33 12.65 7.39 12.63 7.43 12.58C7.47 12.54 7.5 12.48 7.5 12.42L7.5 11.25C7.49 11.22 7.49 11.19 7.48 11.17C8.16 10.83 11.51 9.02 11.51 5.85L11.51 1.4L12.18 1.4C13.19 1.4 13.92 1.68 14.28 2.21C14.58 2.65 14.63 3.25 14.42 3.91C14.14 4.79 12.74 6.51 12.04 7.08C12 7.11 11.97 7.17 11.96 7.23C11.95 7.29 11.97 7.36 12 7.4C12.04 7.45 12.09 7.49 12.15 7.49C12.21 7.5 12.27 7.48 12.32 7.45C13.09 6.82 14.53 5.05 14.85 4.05C15.1 3.25 15.03 2.5 14.64 1.94C14.33 1.48 13.64 0.93 12.18 0.93L11.29 0.93ZM11.06 5.85C11.06 8.71 7.87 10.45 7.28 10.75C6.73 10.44 3.93 8.7 3.93 5.85L3.93 1.4L11.06 1.4L11.06 5.85Z" fill="#414042" fill-opacity="1.000000" fill-rule="nonzero"/>
	<path id="Vector" d="M4.82 13.12C4.31 13.12 3.93 13.52 3.93 14.06L3.93 14.76C3.93 14.82 3.95 14.88 3.99 14.93C4.03 14.97 4.09 15 4.15 15L10.4 15C10.45 15 10.51 14.97 10.55 14.93C10.59 14.88 10.62 14.82 10.62 14.76L10.62 14.09C10.62 13.55 10.23 13.12 9.73 13.12L4.82 13.12ZM10.17 14.09L10.17 14.53L4.37 14.53L4.37 14.06C4.37 13.78 4.56 13.59 4.82 13.59L9.73 13.59C9.98 13.59 10.17 13.81 10.17 14.09Z" fill="#414042" fill-opacity="1.000000" fill-rule="nonzero"/>
</svg>
