<svg width="15.000000" height="15.000000" viewBox="0 0 15 15" fill="none" xmlns="http://www.w3.org/2000/svg" xmlns:xlink="http://www.w3.org/1999/xlink">
	<desc>
			Created with Pixso.
	</desc>
	<defs/>
	<path id="Vector" d="M14.93 12.3L12.2 7.23C12.49 6.57 12.64 5.87 12.64 5.15C12.64 4.21 12.41 3.35 11.94 2.56C11.48 1.77 10.86 1.14 10.07 0.68C9.28 0.22 8.42 0 7.5 0C6.93 0 6.39 0.08 5.87 0.26C5.35 0.43 4.88 0.68 4.46 1C4.04 1.32 3.67 1.68 3.35 2.1C3.03 2.52 2.78 3 2.61 3.53C2.44 4.05 2.35 4.59 2.35 5.15C2.35 5.41 2.37 5.65 2.4 5.9C2.44 6.14 2.49 6.38 2.56 6.6C2.63 6.83 2.71 7.05 2.81 7.28L0.06 12.3C-0.04 12.48 -0.03 12.64 0.1 12.81C0.22 12.97 0.38 13.02 0.57 12.97L2.92 12.45L3.73 14.69C3.79 14.87 3.93 14.98 4.14 15L4.16 15C4.35 15 4.49 14.91 4.57 14.75L6.97 10.28C7.15 10.3 7.32 10.31 7.5 10.31C7.54 10.31 7.6 10.31 7.65 10.3C7.7 10.3 7.76 10.29 7.81 10.29C7.86 10.29 7.92 10.29 7.98 10.28L10.42 14.75C10.51 14.91 10.64 15 10.83 15L10.87 15C11.07 14.98 11.2 14.87 11.26 14.69L12.07 12.45L14.42 12.97C14.51 13 14.6 13 14.68 12.97C14.77 12.93 14.84 12.88 14.89 12.81C15.01 12.65 15.03 12.48 14.93 12.3ZM4.25 13.37L3.67 11.73C3.64 11.66 3.6 11.6 3.54 11.55C3.48 11.49 3.41 11.46 3.34 11.44C3.27 11.42 3.19 11.42 3.11 11.44L1.37 11.83L3.36 8.21C4.04 9.13 4.92 9.76 6.01 10.09L4.25 13.37ZM3.29 5.15C3.29 3.99 3.7 3 4.52 2.17C5.35 1.35 6.34 0.93 7.5 0.93C8.26 0.93 8.96 1.12 9.6 1.5C10.24 1.87 10.75 2.39 11.13 3.03C11.5 3.68 11.69 4.39 11.69 5.15C11.69 5.53 11.64 5.91 11.54 6.27C11.45 6.64 11.31 6.97 11.13 7.28C10.95 7.59 10.72 7.87 10.46 8.13C10.2 8.39 9.91 8.61 9.61 8.79C9.3 8.97 8.97 9.11 8.61 9.22C8.25 9.32 7.88 9.37 7.5 9.37C6.74 9.37 6.03 9.18 5.38 8.8C4.74 8.42 4.23 7.91 3.85 7.26C3.48 6.62 3.29 5.91 3.29 5.15ZM11.88 11.44C11.76 11.41 11.65 11.42 11.55 11.48C11.45 11.54 11.37 11.62 11.32 11.73L10.74 13.38L8.94 10.1C9.49 9.94 9.99 9.69 10.45 9.36C10.92 9.04 11.31 8.64 11.64 8.18L13.62 11.83L11.88 11.44Z" fill="#414042" fill-opacity="1.000000" fill-rule="nonzero"/>
</svg>
