<svg width="15.000000" height="15.000000" viewBox="0 0 15 15" fill="none" xmlns="http://www.w3.org/2000/svg" xmlns:xlink="http://www.w3.org/1999/xlink">
	<desc>
			Created with Pixso.
	</desc>
	<defs/>
	<path id="Vector" d="M15 14.99L0 14.99L0.05 14.79C0.16 14.31 1.14 10.04 1.44 9.51C1.63 9.17 2.65 8.84 4.17 8.39C4.56 8.27 4.92 8.16 5.2 8.07C5.57 7.94 5.66 7.89 5.67 7.87C5.7 7.83 5.77 7.68 5.81 7.24L6.12 7.26C6.09 7.66 6.03 7.92 5.92 8.06L5.9 8.09C5.84 8.17 5.72 8.24 5.29 8.38C5.01 8.47 4.65 8.59 4.25 8.7C3.35 8.97 1.85 9.42 1.7 9.68C1.5 10.03 0.83 12.77 0.39 14.65L14.59 14.65C14.16 12.77 13.48 10.04 13.28 9.68C13.14 9.42 11.63 8.97 10.74 8.7C10.38 8.59 10.05 8.5 9.79 8.41C9.43 8.29 9.23 8.21 9.14 8.14L9.09 8.09C8.98 7.97 8.91 7.73 8.88 7.35L9.19 7.32C9.23 7.73 9.3 7.85 9.32 7.87C9.35 7.89 9.47 7.95 9.88 8.09C10.15 8.17 10.48 8.27 10.82 8.37C12.35 8.83 13.36 9.16 13.55 9.5C13.86 10.03 14.84 14.29 14.95 14.77L15 14.99Z" fill="#414042" fill-opacity="1.000000" fill-rule="nonzero"/>
	<path id="Vector" d="M5.29 8.39L5.2 8.07C5.57 7.95 5.66 7.89 5.67 7.88L5.92 8.07L5.9 8.1C5.84 8.17 5.72 8.25 5.29 8.39Z" fill="#414042" fill-opacity="1.000000" fill-rule="nonzero"/>
	<path id="Vector" d="M7.49 8.07C6.97 8.07 6.48 7.89 6.09 7.55C5.49 7 5.12 6.22 4.92 5.65C4.8 5.3 4.74 4.93 4.74 4.55L4.74 2.8L10.25 2.8L10.25 4.55C10.25 4.93 10.18 5.3 10.05 5.65C9.85 6.22 9.49 7 8.88 7.55C8.5 7.89 8.01 8.07 7.49 8.07ZM5.05 3.14L5.05 4.55C5.05 4.89 5.11 5.22 5.22 5.54C5.41 6.07 5.74 6.8 6.3 7.29C6.95 7.87 8.04 7.87 8.68 7.29C9.24 6.8 9.58 6.06 9.77 5.54C9.88 5.23 9.93 4.89 9.93 4.55L9.93 3.14L5.05 3.14Z" fill="#414042" fill-opacity="1.000000" fill-rule="nonzero"/>
	<path id="Vector" d="M10.27 3.14L4.71 3.14L4.71 2.97C4.71 1.33 5.96 0 7.5 0C9.03 0 10.28 1.32 10.28 2.97L10.28 3.14L10.27 3.14ZM5.02 2.8L9.95 2.8C9.87 1.42 8.8 0.33 7.49 0.33C6.18 0.34 5.11 1.42 5.02 2.8Z" fill="#414042" fill-opacity="1.000000" fill-rule="nonzero"/>
</svg>
