<svg width="21.000000" height="15.000000" viewBox="0 0 21 15" fill="none" xmlns="http://www.w3.org/2000/svg" xmlns:xlink="http://www.w3.org/1999/xlink">
	<desc>
			Created with Pixso.
	</desc>
	<defs/>
	<path id="Vector" d="M16.97 8.36L13.65 8.36C13.55 8.36 13.48 8.28 13.48 8.18C13.48 8.08 13.55 8 13.65 8L16.97 8C19 8 20.65 6.3 20.65 4.21L20.65 1.65L3.13 1.65L3.13 4.21C3.13 4.76 3.25 5.29 3.46 5.78C3.51 5.88 3.46 5.98 3.38 6.02C3.29 6.07 3.19 6.02 3.15 5.94C2.91 5.4 2.79 4.82 2.79 4.22L2.79 1.48C2.79 1.38 2.86 1.3 2.96 1.3L20.82 1.3C20.92 1.3 21 1.38 21 1.48L21 4.22C20.99 6.5 19.18 8.36 16.97 8.36Z" fill="#414042" fill-opacity="1.000000" fill-rule="nonzero"/>
	<path id="Vector" d="M10.13 8.36L6.81 8.36C6.65 8.36 6.48 8.36 6.31 8.33C6.21 8.32 6.15 8.23 6.16 8.13C6.17 8.03 6.26 7.97 6.35 7.97C6.5 8 6.65 8 6.81 8L10.12 8C10.22 8 10.3 8.08 10.3 8.18C10.3 8.28 10.23 8.36 10.13 8.36Z" fill="#414042" fill-opacity="1.000000" fill-rule="nonzero"/>
	<path id="Vector" d="M20.48 13.32L4.81 13.32C4.72 13.32 4.64 13.25 4.64 13.14C4.64 13.04 4.72 12.96 4.81 12.96L20.3 12.96L20.3 5.84C20.3 5.74 20.38 5.66 20.48 5.66C20.58 5.66 20.65 5.74 20.65 5.84L20.65 13.14C20.65 13.25 20.58 13.32 20.48 13.32Z" fill="#414042" fill-opacity="1.000000" fill-rule="nonzero"/>
	<path id="Vector" d="M13.14 9.97L10.63 9.97C10.25 9.97 9.95 9.65 9.95 9.27L9.95 8.12C9.95 7.73 10.25 7.42 10.63 7.42L13.14 7.42C13.52 7.42 13.83 7.74 13.83 8.12L13.83 9.27C13.83 9.65 13.52 9.97 13.14 9.97ZM10.63 7.77C10.45 7.77 10.3 7.92 10.3 8.11L10.3 9.26C10.3 9.45 10.44 9.6 10.63 9.6L13.14 9.6C13.32 9.6 13.48 9.45 13.48 9.26L13.48 8.11C13.48 7.92 13.33 7.77 13.14 7.77L10.63 7.77Z" fill="#414042" fill-opacity="1.000000" fill-rule="nonzero"/>
	<path id="Vector" d="M13.38 1.65L10.4 1.65C10.3 1.65 10.23 1.57 10.23 1.47L10.23 0.84C10.23 0.38 10.6 0 11.05 0L12.74 0C13.19 0 13.56 0.38 13.56 0.84L13.56 1.47C13.55 1.57 13.47 1.65 13.38 1.65ZM10.58 1.29L13.2 1.29L13.2 0.84C13.2 0.58 13 0.36 12.73 0.36L11.04 0.36C10.79 0.36 10.57 0.57 10.57 0.84L10.57 1.29L10.58 1.29Z" fill="#414042" fill-opacity="1.000000" fill-rule="nonzero"/>
	<path id="Vector" d="M4.81 13.61L1.82 13.61C1.72 13.61 1.65 13.53 1.65 13.43L1.65 12.05C0.62 11.44 0 10.31 0 9.1C0 7.21 1.48 5.68 3.32 5.68C5.15 5.68 6.64 7.21 6.64 9.1C6.64 10.31 6.01 11.44 4.99 12.05L4.99 13.43C4.99 13.53 4.91 13.61 4.81 13.61ZM2 13.25L4.64 13.25L4.64 11.94C4.64 11.88 4.67 11.81 4.73 11.78C5.69 11.24 6.29 10.21 6.29 9.09C6.29 7.41 4.95 6.03 3.32 6.03C1.68 6.03 0.34 7.41 0.34 9.09C0.34 10.21 0.94 11.24 1.9 11.78C1.96 11.81 2 11.88 2 11.94L2 13.25Z" fill="#414042" fill-opacity="1.000000" fill-rule="nonzero"/>
	<path id="Vector" d="M3.32 14.99C2.66 14.99 2.13 14.45 2.13 13.77C2.13 13.67 2.2 13.59 2.3 13.59C2.4 13.59 2.48 13.67 2.48 13.77C2.48 14.25 2.86 14.63 3.32 14.63C3.78 14.63 4.16 14.25 4.16 13.77C4.16 13.67 4.23 13.59 4.33 13.59C4.43 13.59 4.51 13.67 4.51 13.77C4.51 14.44 3.97 14.99 3.32 14.99Z" fill="#414042" fill-opacity="1.000000" fill-rule="nonzero"/>
	<path id="Vector" d="M3.32 12.74C3.22 12.74 3.14 12.66 3.14 12.56L3.14 9.88C3.14 9.77 3.22 9.7 3.32 9.7C3.41 9.7 3.49 9.77 3.49 9.88L3.49 12.56C3.49 12.66 3.41 12.74 3.32 12.74Z" fill="#414042" fill-opacity="1.000000" fill-rule="nonzero"/>
	<path id="Vector" d="M3.58 10.06L3.06 10.06C2.53 10.06 2.09 9.6 2.09 9.05C2.09 8.95 2.16 8.87 2.26 8.87C2.36 8.87 2.44 8.95 2.44 9.05C2.44 9.4 2.72 9.69 3.06 9.69L3.58 9.69C3.92 9.69 4.2 9.41 4.2 9.05C4.2 8.95 4.28 8.87 4.38 8.87C4.48 8.87 4.55 8.95 4.55 9.05C4.55 9.6 4.11 10.06 3.58 10.06Z" fill="#414042" fill-opacity="1.000000" fill-rule="nonzero"/>
</svg>
