<svg width="11.000000" height="8.000000" viewBox="0 0 11 8" fill="none" xmlns="http://www.w3.org/2000/svg" xmlns:xlink="http://www.w3.org/1999/xlink">
	<desc>
			Created with Pixso.
	</desc>
	<defs/>
	<path id="XMLID_87_" d="M10.99 6.66C10.99 6.9 10.92 7.11 10.81 7.3L7.35 3.53L10.78 0.62C10.91 0.83 11 1.06 11 1.32L11 6.66L10.99 6.66ZM5.49 4.22L10.26 0.16C10.06 0.06 9.85 0 9.6 0L1.37 0C1.13 0 0.91 0.06 0.71 0.16L5.49 4.22ZM6.82 3.97L5.72 4.91C5.65 4.97 5.57 5 5.49 5C5.41 5 5.33 4.97 5.27 4.91L4.16 3.97L0.65 7.79C0.86 7.92 1.11 8 1.38 8L9.61 8C9.88 8 10.12 7.92 10.34 7.79L6.82 3.97ZM0.21 0.62C0.08 0.83 0 1.06 0 1.32L0 6.65C0 6.89 0.06 7.11 0.17 7.29L3.63 3.52L0.21 0.62Z" fill="#414042" fill-opacity="1.000000" fill-rule="nonzero"/>
</svg>
