<svg width="20.000000" height="20.000000" viewBox="0 0 20 20" fill="none" xmlns="http://www.w3.org/2000/svg" xmlns:xlink="http://www.w3.org/1999/xlink">
	<desc>
			Created with Pixso.
	</desc>
	<defs/>
	<rect id="Rectangle 29" rx="10.000000" width="20.000000" height="20.000000" fill="#414042" fill-opacity="1.000000"/>
	<path id="Vector" d="M15 8.12L15 12.6C15 13.37 14.38 14 13.61 14L6.38 14C6.01 14 5.66 13.85 5.4 13.58C5.14 13.32 5 12.97 5 12.6L5 8.12L9.84 10.82C9.94 10.88 10.06 10.88 10.15 10.82L15 8.12L15 8.12ZM13.61 6C13.97 6 14.32 6.14 14.58 6.39C14.84 6.65 14.99 7 14.99 7.36L10 10.15L5 7.36L5 7.34C5.01 6.98 5.16 6.63 5.42 6.38C5.68 6.13 6.02 5.99 6.38 6L13.61 6Z" fill="#FFFFFF" fill-opacity="1.000000" fill-rule="nonzero"/>
</svg>
