<svg width="20.000000" height="15.000000" viewBox="0 0 20 15" fill="none" xmlns="http://www.w3.org/2000/svg" xmlns:xlink="http://www.w3.org/1999/xlink">
	<desc>
			Created with Pixso.
	</desc>
	<defs/>
	<path id="Vector" d="M10 15C9.92 15 9.83 15 9.74 14.99C8.91 14.93 6.81 14.64 5.35 13.41C4.5 12.69 4 11.5 4 10.2L4 6.17L4.37 6.17L4.37 10.2C4.37 11.36 4.82 12.42 5.58 13.06C7 14.26 9.15 14.51 9.77 14.56C9.92 14.57 10.07 14.57 10.22 14.56C10.85 14.51 13 14.26 14.43 13.05C15.17 12.42 15.63 11.36 15.63 10.22L15.63 6.17L16 6.17L16 10.22C16 11.5 15.5 12.68 14.65 13.4C13.19 14.64 11.09 14.92 10.25 14.99C10.16 15 10.08 15 10 15Z" fill="#414042" fill-opacity="1.000000" fill-rule="nonzero"/>
	<path id="Vector" d="M2.38 12.36L0.22 12.36L0.9 7.31L1.69 7.32L2.38 12.36ZM0.66 11.93L1.93 11.93L1.37 7.75L1.22 7.75L0.66 11.93Z" fill="#414042" fill-opacity="1.000000" fill-rule="nonzero"/>
	<path id="Vector" d="M1.34 7.74C0.88 7.74 0.51 7.31 0.51 6.79C0.51 6.26 0.88 5.83 1.34 5.83C1.8 5.83 2.18 6.26 2.18 6.79C2.18 7.31 1.8 7.74 1.34 7.74ZM1.34 6.26C1.09 6.26 0.88 6.49 0.88 6.79C0.88 7.08 1.09 7.31 1.34 7.31C1.6 7.31 1.8 7.08 1.8 6.79C1.8 6.49 1.6 6.26 1.34 6.26Z" fill="#414042" fill-opacity="1.000000" fill-rule="nonzero"/>
	<path id="Vector" d="M1.16 4.79L1.53 4.79L1.53 6.04L1.16 6.04L1.16 4.79Z" fill="#414042" fill-opacity="1.000000" fill-rule="evenodd"/>
	<path id="Vector" d="M10.16 9.12L0 4.4L10 0L20 4.4L10.16 9.12ZM1.01 4.41L10.15 8.65L18.99 4.41L10 0.45L1.01 4.41Z" fill="#414042" fill-opacity="1.000000" fill-rule="nonzero"/>
</svg>
