<svg width="20.000000" height="20.000000" viewBox="0 0 20 20" fill="none" xmlns="http://www.w3.org/2000/svg" xmlns:xlink="http://www.w3.org/1999/xlink">
	<desc>
			Created with Pixso.
	</desc>
	<defs/>
	<path id="Vector" d="M10 0C4.48 0 0 4.48 0 10C0 15.51 4.48 20 10 20C15.51 20 20 15.51 20 10C19.98 4.48 15.5 0 10 0ZM12.41 6.92C12.41 6.99 12.36 7.05 12.28 7.05L11.24 7.05C10.98 7.05 10.78 7.26 10.78 7.52L10.78 8.61L12.26 8.61C12.33 8.61 12.39 8.67 12.38 8.75L12.26 10.3C12.25 10.36 12.2 10.41 12.12 10.41L10.78 10.41L10.78 15.52C10.78 15.58 10.73 15.65 10.64 15.65L8.77 15.65C8.7 15.65 8.64 15.59 8.64 15.52L8.64 10.41L7.7 10.41C7.64 10.41 7.58 10.36 7.58 10.28L7.58 8.73C7.58 8.67 7.64 8.61 7.7 8.61L8.64 8.61L8.64 7.13C8.64 6.08 9.48 5.25 10.52 5.25L12.28 5.25C12.35 5.25 12.41 5.3 12.41 5.38L12.41 6.92Z" fill="#414042" fill-opacity="1.000000" fill-rule="nonzero"/>
</svg>
