<svg width="9.000000" height="9.000000" viewBox="0 0 9 9" fill="none" xmlns="http://www.w3.org/2000/svg" xmlns:xlink="http://www.w3.org/1999/xlink">
	<desc>
			Created with Pixso.
	</desc>
	<defs/>
	<path id="Vector" d="M7.92 3.21L7.92 0.89C7.92 0.59 7.7 0.35 7.43 0.35L6.94 0.35C6.67 0.35 6.45 0.59 6.45 0.89L6.45 1.75L4.82 0.13C4.64 -0.05 4.35 -0.05 4.17 0.13L0.08 4.2C-0.09 4.36 0.01 4.67 0.24 4.67L1.07 4.67L1.07 8.45C1.07 8.75 1.29 9 1.56 9L3.52 9L3.52 6.29C3.52 6 3.74 5.75 4 5.75L4.98 5.75C5.25 5.75 5.47 6 5.47 6.29L5.47 9L7.43 9C7.7 9 7.92 8.75 7.92 8.45L7.92 4.67L8.75 4.67C8.97 4.67 9.08 4.36 8.91 4.2L7.92 3.21ZM3.52 3.59C3.52 3 3.96 2.51 4.49 2.51C5.03 2.51 5.47 3 5.47 3.59L3.52 3.59Z" fill="#414042" fill-opacity="1.000000" fill-rule="nonzero"/>
</svg>
