<svg width="20.000000" height="20.000000" viewBox="0 0 20 20" fill="none" xmlns="http://www.w3.org/2000/svg" xmlns:xlink="http://www.w3.org/1999/xlink">
	<desc>
			Created with Pixso.
	</desc>
	<defs/>
	<path id="Vector" d="M10 0C4.47 0 0 4.47 0 10C0 15.52 4.47 20 10 20C15.52 20 20 15.52 20 10C20 4.47 15.52 0 10 0ZM7.55 14.14L5.52 14.14L5.52 7.62L7.55 7.62L7.55 14.14ZM6.52 6.82C5.88 6.82 5.47 6.37 5.47 5.81C5.47 5.24 5.9 4.8 6.55 4.8C7.2 4.8 7.6 5.24 7.61 5.81C7.61 6.37 7.2 6.82 6.52 6.82ZM14.94 14.14L12.92 14.14L12.92 10.53C12.92 9.69 12.62 9.12 11.89 9.12C11.33 9.12 11 9.5 10.85 9.88C10.8 10.01 10.79 10.2 10.79 10.38L10.79 14.14L8.76 14.14L8.76 9.7C8.76 8.89 8.73 8.21 8.71 7.62L10.47 7.62L10.56 8.53L10.6 8.53C10.87 8.1 11.52 7.48 12.61 7.48C13.94 7.48 14.94 8.37 14.94 10.29L14.94 14.14Z" fill="#414042" fill-opacity="1.000000" fill-rule="nonzero"/>
</svg>
