<svg width="10.000000" height="10.000000" viewBox="0 0 10 10" fill="none" xmlns="http://www.w3.org/2000/svg" xmlns:xlink="http://www.w3.org/1999/xlink">
	<desc>
			Created with Pixso.
	</desc>
	<defs/>
	<path id="XMLID_22_" d="M9.99 7.88C10.01 8.05 9.96 8.18 9.84 8.31L8.44 9.7C8.38 9.78 8.29 9.84 8.19 9.88C8.09 9.93 7.99 9.96 7.89 9.97C7.88 9.97 7.86 9.97 7.83 9.98C7.79 9.98 7.74 10 7.69 10C7.55 10 7.34 9.97 7.03 9.92C6.73 9.88 6.37 9.77 5.93 9.58C5.49 9.4 5 9.13 4.45 8.77C3.9 8.4 3.32 7.91 2.69 7.29C2.2 6.8 1.79 6.33 1.47 5.89C1.14 5.44 0.88 5.04 0.68 4.65C0.49 4.28 0.34 3.93 0.24 3.62C0.14 3.32 0.07 3.05 0.04 2.83C0.01 2.61 -0.01 2.43 0 2.31C0.01 2.18 0.01 2.11 0.01 2.1C0.02 2 0.05 1.9 0.1 1.8C0.15 1.69 0.21 1.61 0.28 1.55L1.68 0.14C1.78 0.05 1.89 0 2.03 0C2.12 0 2.2 0.03 2.27 0.08C2.34 0.13 2.4 0.19 2.44 0.28L3.58 2.43C3.64 2.55 3.66 2.67 3.63 2.81C3.6 2.94 3.55 3.06 3.45 3.15L2.93 3.67C2.92 3.68 2.9 3.71 2.89 3.75C2.88 3.78 2.87 3.81 2.87 3.83C2.9 3.97 2.96 4.15 3.06 4.34C3.14 4.51 3.28 4.71 3.45 4.96C3.63 5.2 3.88 5.48 4.2 5.81C4.53 6.13 4.81 6.38 5.05 6.57C5.3 6.75 5.5 6.88 5.67 6.96C5.84 7.05 5.96 7.1 6.06 7.12L6.19 7.15C6.2 7.15 6.23 7.14 6.26 7.13C6.3 7.12 6.32 7.11 6.34 7.09L6.94 6.47C7.07 6.36 7.21 6.31 7.39 6.31C7.51 6.31 7.61 6.33 7.67 6.37L7.68 6.37L9.72 7.58C9.88 7.62 9.97 7.73 9.99 7.88Z" fill="#414042" fill-opacity="1.000000" fill-rule="nonzero"/>
</svg>
