<svg width="10.000000" height="10.000000" viewBox="0 0 10 10" fill="none" xmlns="http://www.w3.org/2000/svg" xmlns:xlink="http://www.w3.org/1999/xlink">
	<desc>
			Created with Pixso.
	</desc>
	<defs/>
	<path id="XMLID_136_" d="M5 0C2.25 0 0 2.24 0 4.99C0 7.74 2.24 10 5 10C7.74 10 10 7.75 10 4.99C10 2.24 7.74 0 5 0ZM8.45 3L6.99 3C6.84 2.35 6.59 1.79 6.3 1.2C7.19 1.54 8 2.15 8.45 3ZM5 1C5.4 1.59 5.74 2.25 5.94 3L4.04 3C4.25 2.29 4.59 1.59 5 1ZM1.14 6C1.05 5.7 0.99 5.35 0.99 4.99C0.99 4.65 1.04 4.3 1.14 3.99L2.84 3.99C2.8 4.34 2.8 4.64 2.8 4.99C2.8 5.35 2.84 5.65 2.84 6L1.14 6ZM1.54 6.99L3 6.99C3.15 7.64 3.4 8.2 3.69 8.79C2.8 8.45 1.99 7.84 1.54 6.99ZM3 3L1.54 3C2.04 2.15 2.8 1.54 3.69 1.2C3.4 1.79 3.15 2.35 3 3ZM5 8.99C4.59 8.39 4.25 7.74 4.05 6.99L5.95 6.99C5.74 7.69 5.4 8.39 5 8.99ZM6.14 6L3.84 6C3.79 5.65 3.74 5.35 3.74 4.99C3.74 4.65 3.79 4.34 3.84 3.99L6.19 3.99C6.24 4.34 6.29 4.64 6.29 4.99C6.3 5.34 6.2 5.65 6.14 6ZM6.3 8.79C6.59 8.25 6.85 7.64 6.99 6.99L8.45 6.99C8 7.84 7.19 8.45 6.3 8.79ZM7.19 6C7.24 5.65 7.24 5.35 7.24 4.99C7.24 4.65 7.19 4.34 7.19 3.99L8.9 3.99C8.99 4.29 9.05 4.64 9.05 4.99C9.05 5.35 9 5.69 8.9 6L7.19 6Z" fill="#414042" fill-opacity="1.000000" fill-rule="nonzero"/>
</svg>
