<svg width="15.000000" height="15.000000" viewBox="0 0 15 15" fill="none" xmlns="http://www.w3.org/2000/svg" xmlns:xlink="http://www.w3.org/1999/xlink">
	<desc>
			Created with Pixso.
	</desc>
	<defs/>
	<path id="Vector" d="M7.84 15L7.29 12.91C6.95 12.9 6.6 12.85 6.27 12.78L5.18 14.64L2.43 13.05L3.52 11.18C3.28 10.93 3.07 10.66 2.89 10.37L0.81 10.92L0 7.84L2.08 7.29C2.09 6.95 2.14 6.6 2.21 6.27L0.35 5.18L1.94 2.43L3.81 3.52C4.06 3.28 4.33 3.07 4.62 2.89L4.07 0.81L7.15 0L7.7 2.08C8.04 2.09 8.39 2.14 8.72 2.21L9.81 0.35L12.56 1.94L11.47 3.81C11.71 4.06 11.92 4.33 12.1 4.62L14.18 4.07L15 7.15L12.91 7.7C12.9 8.04 12.85 8.39 12.78 8.72L14.64 9.81L13.05 12.56L11.18 11.47C10.93 11.71 10.66 11.92 10.37 12.1L10.92 14.18L7.84 15ZM6.09 12.37L6.22 12.4C6.62 12.5 7.02 12.56 7.42 12.56L7.56 12.56L8.09 14.56L10.48 13.92L9.95 11.93L10.06 11.85C10.41 11.65 10.73 11.4 11.03 11.12L11.12 11.03L12.92 12.06L14.16 9.92L12.37 8.88L12.4 8.75C12.5 8.36 12.56 7.95 12.56 7.54L12.56 7.41L14.56 6.88L13.92 4.49L11.93 5.02L11.85 4.91C11.65 4.56 11.4 4.23 11.12 3.94L11.03 3.84L12.07 2.05L9.93 0.81L8.88 2.6L8.76 2.57C8.36 2.47 7.96 2.41 7.55 2.41L7.42 2.41L6.89 0.41L4.5 1.04L5.03 3.04L4.91 3.11C4.57 3.32 4.24 3.57 3.95 3.85L3.85 3.94L2.06 2.9L0.82 5.04L2.61 6.08L2.58 6.21C2.48 6.6 2.42 7.01 2.41 7.42L2.41 7.55L0.41 8.08L1.05 10.47L3.05 9.94L3.12 10.05C3.33 10.4 3.57 10.73 3.86 11.02L3.95 11.12L2.91 12.91L5.05 14.15L6.09 12.37ZM7.5 9.98C6.39 9.98 5.38 9.25 5.08 8.13C4.73 6.79 5.52 5.43 6.86 5.08C8.18 4.72 9.56 5.52 9.91 6.85C10.26 8.18 9.47 9.55 8.13 9.9C7.92 9.95 7.71 9.98 7.5 9.98ZM7.5 5.35C7.31 5.35 7.13 5.37 6.95 5.42C5.81 5.72 5.13 6.89 5.43 8.03C5.74 9.18 6.91 9.86 8.05 9.55C9.19 9.25 9.87 8.07 9.56 6.94C9.31 5.99 8.44 5.35 7.5 5.35Z" fill="#414042" fill-opacity="1.000000" fill-rule="nonzero"/>
</svg>
