<svg width="20.000000" height="20.000000" viewBox="0 0 20 20" fill="none" xmlns="http://www.w3.org/2000/svg" xmlns:xlink="http://www.w3.org/1999/xlink">
	<desc>
			Created with Pixso.
	</desc>
	<defs/>
	<path id="Vector" d="M10 0C4.48 0 0 4.48 0 10C0 15.51 4.48 20 10 20C15.51 20 20 15.51 20 10C19.98 4.48 15.5 0 10 0ZM15.29 7.15C15.29 7.18 15.27 7.24 15.22 7.32C14.97 7.65 14.69 7.94 14.35 8.19C14.3 8.23 14.23 8.26 14.23 8.34C14.23 10.08 13.78 11.83 12.51 13.08C10.89 14.7 8.45 15.13 6.29 14.53C5.89 14.42 5.48 14.25 5.09 14.05C4.97 13.99 4.84 13.91 4.72 13.83C4.68 13.8 4.66 13.78 4.69 13.77C4.72 13.75 4.74 13.75 4.83 13.77C5.44 13.83 6.05 13.74 6.63 13.54C6.94 13.43 7.61 13.21 7.82 12.9C7.82 12.89 7.82 12.89 7.83 12.89C7.75 12.87 7.67 12.87 7.59 12.85C7 12.69 6.22 12.39 5.86 11.41C5.83 11.36 5.86 11.32 5.92 11.34C6.41 11.38 6.57 11.35 6.75 11.31C6.66 11.29 6.56 11.26 6.47 11.23C5.73 10.94 5.2 10.22 5.09 9.45C5.08 9.36 5.07 9.28 5.08 9.2C5.08 9.15 5.11 9.13 5.16 9.15C5.54 9.35 5.97 9.39 6 9.39C5.91 9.32 5.82 9.22 5.73 9.15C5.09 8.55 4.84 7.3 5.35 6.54C5.4 6.48 5.42 6.48 5.47 6.53C6.65 7.87 8.09 8.49 9.83 8.75C9.88 8.76 9.88 8.75 9.88 8.7C9.83 8.4 9.83 8.1 9.9 7.79C9.97 7.48 10.13 7.18 10.33 6.94C10.53 6.69 10.78 6.49 11.06 6.35C11.34 6.2 11.64 6.12 11.95 6.1C12.27 6.07 12.59 6.13 12.89 6.25C13.11 6.33 13.31 6.46 13.51 6.63C13.55 6.66 13.58 6.69 13.62 6.74C13.64 6.76 13.68 6.77 13.71 6.76C14.15 6.66 14.56 6.49 14.97 6.27C14.99 6.26 15.01 6.26 15.02 6.27C15.04 6.28 15.04 6.31 15.03 6.32C14.96 6.55 14.83 6.77 14.68 6.96C14.57 7.1 14.32 7.4 14.16 7.43C14.52 7.38 14.9 7.27 15.24 7.13C15.27 7.12 15.29 7.11 15.29 7.15Z" fill="#414042" fill-opacity="1.000000" fill-rule="nonzero"/>
</svg>
